<svg width="204.102" height="77.637" viewBox="0 0 204.102 77.637" xmlns="http://www.w3.org/2000/svg"><g id="svgGroup" stroke-linecap="round" fill-rule="evenodd" font-size="9pt" stroke="#000" stroke-width="0.25mm" fill="#000" style="stroke:#000;stroke-width:0.25mm;fill:#000"><path d="M 93.262 65.234 A 5.152 5.152 0 0 0 93.251 65.487 Q 93.234 66.466 93.622 67.086 A 1.945 1.945 0 0 0 93.897 67.432 A 5.716 5.716 0 0 1 94.788 68.6 A 7.065 7.065 0 0 1 95.117 69.238 A 5.706 5.706 0 0 0 95.072 69.662 Q 95.007 70.625 95.334 71.252 A 1.947 1.947 0 0 0 95.41 71.387 A 15.173 15.173 0 0 0 95.117 72.009 A 20.046 20.046 0 0 0 94.824 72.705 Q 94.531 73.438 93.945 73.926 Q 92.548 74.537 92.166 74.992 A 0.827 0.827 0 0 0 92.09 75.098 A 0.897 0.897 0 0 1 91.646 75.466 Q 91.354 75.586 90.918 75.586 A 30.844 30.844 0 0 1 90.405 76.086 A 38.087 38.087 0 0 1 89.844 76.611 A 38.087 38.087 0 0 0 89.282 77.136 A 30.844 30.844 0 0 0 88.77 77.637 A 2.243 2.243 0 0 1 88.493 77.505 Q 88.357 77.427 88.255 77.338 A 0.966 0.966 0 0 1 88.086 77.148 Q 87.936 76.924 87.672 76.585 A 21.869 21.869 0 0 0 87.5 76.367 A 4.391 4.391 0 0 1 85.742 75.342 A 8.446 8.446 0 0 1 84.375 73.682 Q 83.789 72.754 83.252 71.729 A 38.041 38.041 0 0 1 82.752 70.74 A 28.821 28.821 0 0 1 82.324 69.824 A 867.373 867.373 0 0 0 79.541 64.697 Q 78.125 62.109 76.66 59.57 A 67.286 67.286 0 0 1 75.147 56.982 A 255.97 255.97 0 0 0 73.633 54.297 A 4.968 4.968 0 0 1 73.389 54.034 A 5.982 5.982 0 0 1 73.242 53.857 A 7.179 7.179 0 0 1 72.998 53.533 A 8.576 8.576 0 0 1 72.852 53.32 A 7.122 7.122 0 0 1 71.87 51.275 A 8.052 8.052 0 0 1 71.826 51.123 A 3.636 3.636 0 0 0 70.41 49.121 Q 68.829 48.955 67.497 49.462 A 5.693 5.693 0 0 0 67.041 49.658 A 9.813 9.813 0 0 0 64.356 51.563 A 10.042 10.042 0 0 1 64.434 52.3 A 7.843 7.843 0 0 1 64.453 52.832 L 64.453 54.004 A 46.851 46.851 0 0 1 64.343 57.263 A 41.158 41.158 0 0 1 64.258 58.301 A 43.906 43.906 0 0 0 64.075 61.487 A 50.004 50.004 0 0 0 64.063 62.598 Q 64.063 63.574 64.16 64.6 Q 64.258 65.625 64.453 66.602 A 8.304 8.304 0 0 0 64.195 68.096 A 10.181 10.181 0 0 0 64.16 68.945 A 5.609 5.609 0 0 0 64.217 69.762 A 4.668 4.668 0 0 0 64.307 70.215 A 4.922 4.922 0 0 1 64.438 71.056 A 5.964 5.964 0 0 1 64.453 71.484 A 2.325 2.325 0 0 1 64.408 71.958 Q 64.351 72.232 64.222 72.433 A 1.083 1.083 0 0 1 63.818 72.803 Q 63.186 73.143 63.378 74.017 A 2.328 2.328 0 0 0 63.379 74.023 A 79.149 79.149 0 0 0 61.676 74.756 A 70.876 70.876 0 0 0 61.133 75 A 8.966 8.966 0 0 1 58.887 75.684 A 3.312 3.312 0 0 1 58.236 75.749 A 3.269 3.269 0 0 1 57.91 75.732 Q 57.532 75.695 57.212 75.803 A 1.443 1.443 0 0 0 57.031 75.879 Q 56.543 76.074 56.25 76.611 Q 55.957 77.148 55.469 77.148 A 1.171 1.171 0 0 1 55.225 77.125 Q 54.86 77.047 54.785 76.709 A 1.553 1.553 0 0 0 54.607 76.25 A 1.384 1.384 0 0 0 54.395 75.977 A 4.119 4.119 0 0 0 54.135 75.882 Q 53.876 75.798 53.686 75.784 A 0.991 0.991 0 0 0 53.613 75.781 Q 53.32 75.781 53.027 75.488 Q 53.125 74.609 52.637 74.17 Q 52.239 73.812 52.165 72.837 A 6.312 6.312 0 0 1 52.148 72.363 Q 52.148 71.289 52.295 70.313 A 13.482 13.482 0 0 0 52.436 68.678 A 15.344 15.344 0 0 0 52.441 68.262 A 5.509 5.509 0 0 0 52.357 67.276 A 4.545 4.545 0 0 0 52.197 66.65 A 14.703 14.703 0 0 1 51.938 65.78 A 18.509 18.509 0 0 1 51.758 65.039 A 1.605 1.605 0 0 1 51.709 64.648 A 1.605 1.605 0 0 1 51.758 64.258 Q 51.856 63.867 51.856 63.477 A 44.097 44.097 0 0 0 51.709 59.912 A 44.097 44.097 0 0 1 51.563 56.348 L 51.563 55.078 A 7.117 7.117 0 0 1 51.66 53.906 A 43.608 43.608 0 0 1 51.755 53.625 Q 51.892 53.223 52.002 52.93 A 2.067 2.067 0 0 0 52.097 52.58 Q 52.129 52.406 52.141 52.204 A 4.19 4.19 0 0 0 52.148 51.953 Q 52.148 50.098 51.758 48.291 Q 51.367 46.484 51.367 44.727 A 42.103 42.103 0 0 1 51.416 42.725 A 42.103 42.103 0 0 0 51.465 40.723 A 155.98 155.98 0 0 0 51.367 35.156 Q 51.27 32.422 51.27 29.688 Q 51.27 27.734 51.367 25.83 Q 51.465 23.926 51.465 21.973 A 59.391 59.391 0 0 0 51.27 17.139 A 60.461 60.461 0 0 1 51.074 12.366 A 65.815 65.815 0 0 1 51.074 12.207 Q 51.074 11.398 50.992 11.086 A 0.837 0.837 0 0 0 50.977 11.035 A 0.871 0.871 0 0 0 50.92 10.9 Q 50.829 10.73 50.684 10.693 A 8.122 8.122 0 0 0 50.476 10.645 A 11.163 11.163 0 0 0 50.244 10.596 A 0.552 0.552 0 0 1 50.012 10.486 Q 49.94 10.43 49.873 10.347 A 1.238 1.238 0 0 1 49.805 10.254 Q 49.805 9.668 50.293 9.424 A 0.624 0.624 0 0 0 50.553 9.157 Q 50.769 8.77 50.781 7.914 A 7.307 7.307 0 0 0 50.781 7.813 A 8.462 8.462 0 0 0 50.635 6.25 A 8.462 8.462 0 0 1 50.488 4.688 A 5.941 5.941 0 0 1 50.849 2.673 A 6.938 6.938 0 0 1 50.977 2.344 A 55.162 55.162 0 0 0 51.602 0.779 A 47.079 47.079 0 0 0 51.856 0.098 A 18.301 18.301 0 0 1 52.137 0.076 Q 52.905 0.024 53.303 0.071 A 1.644 1.644 0 0 1 53.467 0.098 A 1.371 1.371 0 0 0 53.765 0.13 Q 53.964 0.13 54.173 0.074 A 1.977 1.977 0 0 0 54.395 0 A 2.017 2.017 0 0 0 54.598 0.498 Q 54.947 1.087 55.664 1.123 Q 56.641 1.172 57.422 1.367 Q 58.301 1.465 59.131 1.807 A 4.668 4.668 0 0 0 60.024 2.078 A 3.787 3.787 0 0 0 60.742 2.148 A 1.283 1.283 0 0 0 61.439 2.921 A 1.814 1.814 0 0 0 61.572 2.979 A 15.64 15.64 0 0 0 62.891 3.418 Q 63.672 3.32 64.111 2.734 A 1.408 1.408 0 0 1 65.141 2.158 A 1.923 1.923 0 0 1 65.332 2.148 A 1.061 1.061 0 0 1 65.753 2.244 Q 66.088 2.389 66.474 2.752 A 5.266 5.266 0 0 1 66.699 2.979 Q 67.343 3.663 67.722 4.115 A 10.513 10.513 0 0 1 67.871 4.297 Q 68.262 4.59 69.336 5.566 A 49.534 49.534 0 0 0 70.755 6.806 A 58.985 58.985 0 0 0 71.68 7.568 A 103.101 103.101 0 0 1 72.9 8.569 A 83.646 83.646 0 0 1 74.023 9.521 A 27.091 27.091 0 0 0 74.399 9.84 Q 75.136 10.454 75.38 10.543 A 0.384 0.384 0 0 0 75.391 10.547 A 411.118 411.118 0 0 0 79.26 14.368 A 317.655 317.655 0 0 0 82.861 17.822 A 51.844 51.844 0 0 0 90.43 23.73 A 2.098 2.098 0 0 0 90.525 23.968 Q 90.583 24.091 90.654 24.191 A 1.247 1.247 0 0 0 90.674 24.219 A 7.734 7.734 0 0 1 90.791 24.379 Q 90.842 24.451 90.898 24.533 A 15.785 15.785 0 0 1 91.016 24.707 A 3.363 3.363 0 0 1 90.993 25.116 Q 90.935 25.581 90.737 25.859 A 1.028 1.028 0 0 1 90.723 25.879 A 1.435 1.435 0 0 0 90.464 26.476 A 1.991 1.991 0 0 0 90.43 26.855 A 1.247 1.247 0 0 0 90.516 27.304 A 1.531 1.531 0 0 0 90.576 27.441 A 1.411 1.411 0 0 1 90.695 27.771 A 1.196 1.196 0 0 1 90.723 28.027 A 2.201 2.201 0 0 1 90.779 28.344 Q 90.8 28.56 90.772 28.76 A 4.837 4.837 0 0 0 90.73 29.206 A 5.826 5.826 0 0 0 90.723 29.492 A 2.715 2.715 0 0 0 91.357 31.25 A 2.715 2.715 0 0 1 91.992 33.008 Q 91.797 33.887 91.211 34.082 Q 90.666 34.264 90.29 34.53 A 2.494 2.494 0 0 0 90.234 34.57 A 1.675 1.675 0 0 0 90.02 34.836 A 2.18 2.18 0 0 0 89.893 35.059 A 2.114 2.114 0 0 1 89.729 35.335 A 1.632 1.632 0 0 1 89.551 35.547 A 25.707 25.707 0 0 0 88.435 36.085 Q 87.37 36.632 86.707 37.13 A 5.905 5.905 0 0 0 86.426 37.354 A 34.458 34.458 0 0 1 84.375 38.965 A 28.697 28.697 0 0 1 84.204 39.078 Q 83.942 39.25 83.504 39.532 A 210.741 210.741 0 0 1 83.398 39.6 L 82.031 40.479 Q 81.348 40.918 80.811 41.406 Q 80.301 41.87 80.275 42.157 A 0.337 0.337 0 0 0 80.273 42.188 Q 80.273 42.737 80.811 43.635 A 9.41 9.41 0 0 0 81.104 44.092 Q 81.788 45.098 82.173 45.739 A 13.422 13.422 0 0 1 82.324 45.996 A 54.874 54.874 0 0 1 84.051 49.028 A 49.446 49.446 0 0 1 84.277 49.463 Q 85.156 51.172 86.231 52.832 Q 88.184 55.859 89.893 58.984 Q 91.602 62.109 93.262 65.234 Z M 166.113 44.434 L 166.895 45.313 Q 166.895 46.094 167.334 47.119 Q 167.67 47.904 167.978 48.489 A 11.214 11.214 0 0 0 168.164 48.828 Q 167.969 49.805 168.213 50.049 L 168.652 50.488 A 26.772 26.772 0 0 0 168.633 50.932 Q 168.587 52.201 168.705 52.76 A 1.56 1.56 0 0 0 168.75 52.93 A 403.967 403.967 0 0 1 167.151 54.333 A 313.558 313.558 0 0 1 165.674 55.615 Q 164.258 56.836 163.184 58.008 A 17.837 17.837 0 0 1 161.953 59.369 A 15.166 15.166 0 0 1 161.377 59.912 A 304.664 304.664 0 0 0 160.413 60.779 A 383.536 383.536 0 0 0 159.375 61.719 Q 158.901 62.35 158.555 62.663 A 2.252 2.252 0 0 1 158.398 62.793 A 7.726 7.726 0 0 1 157.736 63.386 A 5.661 5.661 0 0 1 157.031 63.867 A 119.014 119.014 0 0 1 155.018 65.672 A 107.681 107.681 0 0 1 154.736 65.918 A 133.211 133.211 0 0 0 152.539 67.871 A 72.38 72.38 0 0 0 151.782 68.542 A 61.66 61.66 0 0 0 151.074 69.189 A 18.106 18.106 0 0 0 150.134 70.131 A 21.257 21.257 0 0 0 149.707 70.605 A 47.847 47.847 0 0 0 149.166 71.156 Q 148.892 71.439 148.592 71.757 A 81.805 81.805 0 0 0 148.389 71.973 A 8.461 8.461 0 0 1 147.549 72.759 A 6.749 6.749 0 0 1 146.875 73.242 Q 146.582 73.828 146.094 74.268 A 7.828 7.828 0 0 0 145.215 75.195 A 22.862 22.862 0 0 0 144.321 75.732 A 19.321 19.321 0 0 0 143.945 75.977 A 10.849 10.849 0 0 1 143.311 76.367 Q 142.969 76.563 142.578 76.758 A 35.18 35.18 0 0 0 141.527 75.998 A 30.08 30.08 0 0 0 141.065 75.684 A 4.727 4.727 0 0 0 139.453 75 A 5.179 5.179 0 0 1 139.027 74.605 Q 138.827 74.396 138.681 74.187 A 2.763 2.763 0 0 1 138.574 74.023 A 1.263 1.263 0 0 0 138.159 73.608 Q 137.891 73.438 137.5 73.34 Q 137.305 73.047 137.061 72.705 Q 136.816 72.363 136.621 71.973 Q 135.449 71.875 134.766 70.508 Q 134.916 70.057 135.153 69.779 A 1.37 1.37 0 0 1 135.303 69.629 A 0.59 0.59 0 0 0 135.484 69.338 Q 135.571 69.041 135.449 68.555 Q 136.035 67.578 136.865 66.846 A 35.416 35.416 0 0 0 138.477 65.332 A 19.026 19.026 0 0 0 139.903 63.927 A 17.422 17.422 0 0 0 140.088 63.721 A 18.705 18.705 0 0 1 141.59 62.207 A 20.535 20.535 0 0 1 141.699 62.109 A 25.627 25.627 0 0 1 142.676 61.182 A 33.436 33.436 0 0 1 143.189 60.73 A 41.822 41.822 0 0 1 143.75 60.254 A 31.31 31.31 0 0 1 145.947 58.252 A 57.307 57.307 0 0 0 147.659 56.778 A 65.283 65.283 0 0 0 148.242 56.25 A 55.403 55.403 0 0 1 151.465 53.271 Q 153.125 51.855 154.492 50.098 A 1.678 1.678 0 0 0 154.43 49.897 Q 154.34 49.666 154.199 49.561 A 0.75 0.75 0 0 1 154.01 49.349 Q 153.949 49.249 153.906 49.121 Q 152.344 47.656 150.83 46.24 Q 149.316 44.824 147.559 43.75 A 7.988 7.988 0 0 1 147.26 43.436 Q 146.918 43.054 146.777 42.773 Q 145.02 41.504 143.408 39.941 A 16.571 16.571 0 0 0 139.844 37.305 A 3.772 3.772 0 0 0 138.916 36.475 A 49.928 49.928 0 0 0 138.391 36.145 A 42.235 42.235 0 0 0 137.891 35.84 A 4.796 4.796 0 0 0 137.556 35.35 A 3.747 3.747 0 0 0 137.256 35.01 A 2.385 2.385 0 0 0 136.575 34.537 A 2.805 2.805 0 0 0 136.426 34.473 A 10.261 10.261 0 0 1 136.069 34.146 Q 135.72 33.81 135.527 33.545 A 1.923 1.923 0 0 1 135.4 33.35 A 1.015 1.015 0 0 0 134.827 32.877 A 1.529 1.529 0 0 0 134.57 32.813 Q 134.375 32.324 133.936 32.031 A 11.947 11.947 0 0 1 133.426 31.671 A 15.377 15.377 0 0 1 133.008 31.348 A 2.66 2.66 0 0 0 132.726 30.75 A 2.256 2.256 0 0 0 132.422 30.371 Q 132.324 29.59 132.52 29.248 A 21.52 21.52 0 0 0 132.611 29.086 Q 132.739 28.857 132.813 28.711 A 1.484 1.484 0 0 0 132.68 28.291 A 1.169 1.169 0 0 0 132.275 27.832 Q 131.836 27.539 131.836 26.855 A 0.969 0.969 0 0 1 131.854 26.66 Q 131.877 26.55 131.928 26.468 A 0.448 0.448 0 0 1 132.08 26.318 A 0.766 0.766 0 0 0 132.402 25.933 A 0.988 0.988 0 0 0 132.422 25.879 L 132.715 24.414 Q 133.496 23.828 134.033 22.998 Q 134.57 22.168 135.449 21.68 Q 136.426 20.215 137.891 19.238 A 4.138 4.138 0 0 1 139.111 17.969 Q 139.844 17.48 140.332 16.699 A 6.968 6.968 0 0 0 141.134 16.119 A 5.583 5.583 0 0 0 141.65 15.625 A 5.805 5.805 0 0 1 142.417 14.931 A 7.289 7.289 0 0 1 142.969 14.551 Q 143.15 14.188 143.374 13.951 A 1.764 1.764 0 0 1 143.408 13.916 A 1.487 1.487 0 0 0 143.637 13.626 A 1.261 1.261 0 0 0 143.75 13.379 A 443.873 443.873 0 0 1 145.638 11.571 Q 146.388 10.857 147.076 10.211 A 249.006 249.006 0 0 1 148.389 8.984 Q 150.391 7.129 152.539 5.273 A 17.017 17.017 0 0 0 153.418 4.486 A 19.277 19.277 0 0 0 153.711 4.199 A 10.065 10.065 0 0 1 154.981 3.125 A 0.659 0.659 0 0 1 155.45 2.93 A 0.865 0.865 0 0 1 155.469 2.93 Q 155.762 2.93 156.055 2.734 Q 157.008 2.734 157.251 2.67 A 0.173 0.173 0 0 0 157.324 2.637 A 2.015 2.015 0 0 0 157.451 2.857 Q 157.523 2.965 157.601 3.044 A 0.827 0.827 0 0 0 157.764 3.174 A 0.534 0.534 0 0 1 157.929 3.336 Q 158.033 3.489 158.092 3.745 A 2.213 2.213 0 0 1 158.106 3.809 A 41.72 41.72 0 0 0 158.429 4.037 Q 158.779 4.283 159.033 4.448 A 10.092 10.092 0 0 0 159.18 4.541 A 0.975 0.975 0 0 1 159.55 4.973 Q 159.62 5.124 159.658 5.314 A 1.973 1.973 0 0 1 159.668 5.371 Q 160.535 6.045 160.689 6.245 A 0.436 0.436 0 0 1 160.693 6.25 Q 160.84 6.445 160.938 6.738 A 15.142 15.142 0 0 0 161.414 7.104 A 11.755 11.755 0 0 0 161.865 7.422 A 1.521 1.521 0 0 1 162.369 7.99 A 2.062 2.062 0 0 1 162.5 8.301 A 10.283 10.283 0 0 1 162.852 8.622 Q 163.327 9.079 163.475 9.372 A 0.956 0.956 0 0 1 163.477 9.375 A 3.257 3.257 0 0 1 163.691 9.93 A 3.993 3.993 0 0 1 163.77 10.254 Q 163.467 10.783 162.697 11.605 A 21.928 21.928 0 0 1 162.207 12.109 A 60.838 60.838 0 0 1 160.962 13.318 A 78.868 78.868 0 0 1 159.57 14.6 A 987.945 987.945 0 0 1 157.428 16.522 A 885.307 885.307 0 0 1 156.738 17.139 Q 155.692 18.073 154.988 18.693 A 151.555 151.555 0 0 1 154.59 19.043 A 2.61 2.61 0 0 1 154.111 19.717 A 2.49 2.49 0 0 1 154.102 19.727 Q 153.809 20.02 153.613 20.41 A 10.743 10.743 0 0 0 152.539 21.436 A 3.343 3.343 0 0 1 151.367 22.266 Q 150.391 23.633 148.633 24.951 A 11.782 11.782 0 0 0 147.649 25.77 Q 147.185 26.204 146.852 26.633 A 4.676 4.676 0 0 0 146.289 27.539 Q 146.365 27.766 146.587 27.993 A 2.217 2.217 0 0 0 146.729 28.125 A 16.472 16.472 0 0 1 146.89 28.265 Q 147.087 28.438 147.223 28.571 A 4.87 4.87 0 0 1 147.266 28.613 A 8.769 8.769 0 0 0 148.478 29.618 A 10.599 10.599 0 0 0 149.121 30.029 A 9.959 9.959 0 0 1 150.349 30.88 A 8.316 8.316 0 0 1 150.977 31.445 Q 151.758 32.129 152.539 32.764 A 55.998 55.998 0 0 1 154.102 34.082 A 6.152 6.152 0 0 1 154.364 34.363 Q 154.631 34.666 154.967 35.106 A 22.885 22.885 0 0 1 155.078 35.254 A 33.468 33.468 0 0 0 156.398 36.259 A 28.501 28.501 0 0 0 156.982 36.67 A 18.133 18.133 0 0 1 158.789 38.086 A 114.36 114.36 0 0 1 162.402 41.26 A 72.682 72.682 0 0 0 166.113 44.434 Z M 201.465 44.434 L 202.246 45.313 Q 202.246 46.094 202.686 47.119 Q 203.022 47.904 203.33 48.489 A 11.214 11.214 0 0 0 203.516 48.828 Q 203.32 49.805 203.565 50.049 L 204.004 50.488 A 26.772 26.772 0 0 0 203.984 50.932 Q 203.938 52.201 204.057 52.76 A 1.56 1.56 0 0 0 204.102 52.93 A 403.967 403.967 0 0 1 202.502 54.333 A 313.558 313.558 0 0 1 201.025 55.615 Q 199.609 56.836 198.535 58.008 A 17.837 17.837 0 0 1 197.304 59.369 A 15.166 15.166 0 0 1 196.729 59.912 A 304.664 304.664 0 0 0 195.764 60.779 A 383.536 383.536 0 0 0 194.727 61.719 Q 194.253 62.35 193.907 62.663 A 2.252 2.252 0 0 1 193.75 62.793 A 7.726 7.726 0 0 1 193.088 63.386 A 5.661 5.661 0 0 1 192.383 63.867 A 119.014 119.014 0 0 1 190.369 65.672 A 107.681 107.681 0 0 1 190.088 65.918 A 133.211 133.211 0 0 0 187.891 67.871 A 72.38 72.38 0 0 0 187.134 68.542 A 61.66 61.66 0 0 0 186.426 69.189 A 18.106 18.106 0 0 0 185.486 70.131 A 21.257 21.257 0 0 0 185.059 70.605 A 47.847 47.847 0 0 0 184.518 71.156 Q 184.244 71.439 183.943 71.757 A 81.805 81.805 0 0 0 183.74 71.973 A 8.461 8.461 0 0 1 182.901 72.759 A 6.749 6.749 0 0 1 182.227 73.242 Q 181.934 73.828 181.445 74.268 A 7.828 7.828 0 0 0 180.566 75.195 A 22.862 22.862 0 0 0 179.673 75.732 A 19.321 19.321 0 0 0 179.297 75.977 A 10.849 10.849 0 0 1 178.662 76.367 Q 178.32 76.563 177.93 76.758 A 35.18 35.18 0 0 0 176.879 75.998 A 30.08 30.08 0 0 0 176.416 75.684 A 4.727 4.727 0 0 0 174.805 75 A 5.179 5.179 0 0 1 174.379 74.605 Q 174.179 74.396 174.032 74.187 A 2.763 2.763 0 0 1 173.926 74.023 A 1.263 1.263 0 0 0 173.511 73.608 Q 173.242 73.438 172.852 73.34 Q 172.656 73.047 172.412 72.705 Q 172.168 72.363 171.973 71.973 Q 170.801 71.875 170.117 70.508 Q 170.268 70.057 170.505 69.779 A 1.37 1.37 0 0 1 170.654 69.629 A 0.59 0.59 0 0 0 170.836 69.338 Q 170.922 69.041 170.801 68.555 Q 171.387 67.578 172.217 66.846 A 35.416 35.416 0 0 0 173.828 65.332 A 19.026 19.026 0 0 0 175.254 63.927 A 17.422 17.422 0 0 0 175.44 63.721 A 18.705 18.705 0 0 1 176.942 62.207 A 20.535 20.535 0 0 1 177.051 62.109 A 25.627 25.627 0 0 1 178.027 61.182 A 33.436 33.436 0 0 1 178.54 60.73 A 41.822 41.822 0 0 1 179.102 60.254 A 31.31 31.31 0 0 1 181.299 58.252 A 57.307 57.307 0 0 0 183.011 56.778 A 65.283 65.283 0 0 0 183.594 56.25 A 55.403 55.403 0 0 1 186.816 53.271 Q 188.477 51.855 189.844 50.098 A 1.678 1.678 0 0 0 189.781 49.897 Q 189.691 49.666 189.551 49.561 A 0.75 0.75 0 0 1 189.362 49.349 Q 189.301 49.249 189.258 49.121 Q 187.695 47.656 186.182 46.24 Q 184.668 44.824 182.91 43.75 A 7.988 7.988 0 0 1 182.612 43.436 Q 182.269 43.054 182.129 42.773 Q 180.371 41.504 178.76 39.941 A 16.571 16.571 0 0 0 175.195 37.305 A 3.772 3.772 0 0 0 174.268 36.475 A 49.928 49.928 0 0 0 173.743 36.145 A 42.235 42.235 0 0 0 173.242 35.84 A 4.796 4.796 0 0 0 172.907 35.35 A 3.747 3.747 0 0 0 172.607 35.01 A 2.385 2.385 0 0 0 171.926 34.537 A 2.805 2.805 0 0 0 171.777 34.473 A 10.261 10.261 0 0 1 171.42 34.146 Q 171.071 33.81 170.878 33.545 A 1.923 1.923 0 0 1 170.752 33.35 A 1.015 1.015 0 0 0 170.178 32.877 A 1.529 1.529 0 0 0 169.922 32.813 Q 169.727 32.324 169.287 32.031 A 11.947 11.947 0 0 1 168.777 31.671 A 15.377 15.377 0 0 1 168.359 31.348 A 2.66 2.66 0 0 0 168.078 30.75 A 2.256 2.256 0 0 0 167.773 30.371 Q 167.676 29.59 167.871 29.248 A 21.52 21.52 0 0 0 167.963 29.086 Q 168.091 28.857 168.164 28.711 A 1.484 1.484 0 0 0 168.032 28.291 A 1.169 1.169 0 0 0 167.627 27.832 Q 167.188 27.539 167.188 26.855 A 0.969 0.969 0 0 1 167.206 26.66 Q 167.229 26.55 167.28 26.468 A 0.448 0.448 0 0 1 167.432 26.318 A 0.766 0.766 0 0 0 167.754 25.933 A 0.988 0.988 0 0 0 167.773 25.879 L 168.066 24.414 Q 168.848 23.828 169.385 22.998 Q 169.922 22.168 170.801 21.68 Q 171.777 20.215 173.242 19.238 A 4.138 4.138 0 0 1 174.463 17.969 Q 175.195 17.48 175.684 16.699 A 6.968 6.968 0 0 0 176.485 16.119 A 5.583 5.583 0 0 0 177.002 15.625 A 5.805 5.805 0 0 1 177.769 14.931 A 7.289 7.289 0 0 1 178.32 14.551 Q 178.502 14.188 178.726 13.951 A 1.764 1.764 0 0 1 178.76 13.916 A 1.487 1.487 0 0 0 178.988 13.626 A 1.261 1.261 0 0 0 179.102 13.379 A 443.873 443.873 0 0 1 180.99 11.571 Q 181.739 10.857 182.427 10.211 A 249.006 249.006 0 0 1 183.74 8.984 Q 185.742 7.129 187.891 5.273 A 17.017 17.017 0 0 0 188.77 4.486 A 19.277 19.277 0 0 0 189.063 4.199 A 10.065 10.065 0 0 1 190.332 3.125 A 0.659 0.659 0 0 1 190.802 2.93 A 0.865 0.865 0 0 1 190.82 2.93 Q 191.113 2.93 191.406 2.734 Q 192.36 2.734 192.602 2.67 A 0.173 0.173 0 0 0 192.676 2.637 A 2.015 2.015 0 0 0 192.803 2.857 Q 192.875 2.965 192.953 3.044 A 0.827 0.827 0 0 0 193.115 3.174 A 0.534 0.534 0 0 1 193.281 3.336 Q 193.384 3.489 193.443 3.745 A 2.213 2.213 0 0 1 193.457 3.809 A 41.72 41.72 0 0 0 193.781 4.037 Q 194.131 4.283 194.385 4.448 A 10.092 10.092 0 0 0 194.531 4.541 A 0.975 0.975 0 0 1 194.902 4.973 Q 194.972 5.124 195.009 5.314 A 1.973 1.973 0 0 1 195.02 5.371 Q 195.887 6.045 196.041 6.245 A 0.436 0.436 0 0 1 196.045 6.25 Q 196.191 6.445 196.289 6.738 A 15.142 15.142 0 0 0 196.765 7.104 A 11.755 11.755 0 0 0 197.217 7.422 A 1.521 1.521 0 0 1 197.72 7.99 A 2.062 2.062 0 0 1 197.852 8.301 A 10.283 10.283 0 0 1 198.203 8.622 Q 198.679 9.079 198.827 9.372 A 0.956 0.956 0 0 1 198.828 9.375 A 3.257 3.257 0 0 1 199.042 9.93 A 3.993 3.993 0 0 1 199.121 10.254 Q 198.819 10.783 198.048 11.605 A 21.928 21.928 0 0 1 197.559 12.109 A 60.838 60.838 0 0 1 196.314 13.318 A 78.868 78.868 0 0 1 194.922 14.6 A 987.945 987.945 0 0 1 192.78 16.522 A 885.307 885.307 0 0 1 192.09 17.139 Q 191.043 18.073 190.34 18.693 A 151.555 151.555 0 0 1 189.941 19.043 A 2.61 2.61 0 0 1 189.462 19.717 A 2.49 2.49 0 0 1 189.453 19.727 Q 189.16 20.02 188.965 20.41 A 10.743 10.743 0 0 0 187.891 21.436 A 3.343 3.343 0 0 1 186.719 22.266 Q 185.742 23.633 183.984 24.951 A 11.782 11.782 0 0 0 183 25.77 Q 182.537 26.204 182.203 26.633 A 4.676 4.676 0 0 0 181.641 27.539 Q 181.716 27.766 181.938 27.993 A 2.217 2.217 0 0 0 182.08 28.125 A 16.472 16.472 0 0 1 182.242 28.265 Q 182.439 28.438 182.574 28.571 A 4.87 4.87 0 0 1 182.617 28.613 A 8.769 8.769 0 0 0 183.829 29.618 A 10.599 10.599 0 0 0 184.473 30.029 A 9.959 9.959 0 0 1 185.701 30.88 A 8.316 8.316 0 0 1 186.328 31.445 Q 187.109 32.129 187.891 32.764 A 55.998 55.998 0 0 1 189.453 34.082 A 6.152 6.152 0 0 1 189.716 34.363 Q 189.983 34.666 190.318 35.106 A 22.885 22.885 0 0 1 190.43 35.254 A 33.468 33.468 0 0 0 191.749 36.259 A 28.501 28.501 0 0 0 192.334 36.67 A 18.133 18.133 0 0 1 194.141 38.086 A 114.36 114.36 0 0 1 197.754 41.26 A 72.682 72.682 0 0 0 201.465 44.434 Z M 128.418 66.016 L 130.176 68.945 A 39.306 39.306 0 0 0 130.741 69.637 Q 131.195 70.178 131.592 70.605 A 4.019 4.019 0 0 1 132.133 71.354 Q 132.41 71.838 132.617 72.461 A 14.387 14.387 0 0 1 132.698 72.8 Q 132.797 73.24 132.81 73.467 A 1.135 1.135 0 0 1 132.813 73.535 A 1.5 1.5 0 0 1 132.77 73.907 A 0.952 0.952 0 0 1 132.324 74.512 A 3.839 3.839 0 0 0 132.067 74.52 Q 131.682 74.546 131.554 74.657 A 0.175 0.175 0 0 0 131.494 74.756 A 0.422 0.422 0 0 1 131.404 74.939 Q 131.293 75.076 131.055 75.195 A 1.635 1.635 0 0 1 130.776 75.301 Q 130.492 75.382 130.081 75.421 A 7.111 7.111 0 0 1 129.834 75.439 A 41.099 41.099 0 0 1 129.44 75.461 Q 128.882 75.488 128.516 75.488 Q 127.637 75.488 126.318 75.439 Q 125 75.391 124.219 75.684 L 123.633 75.977 Q 123.333 76.127 123.148 76.161 A 0.551 0.551 0 0 1 123.047 76.172 Q 122.389 76.172 122.043 75.999 A 0.885 0.885 0 0 1 121.924 75.928 A 1.637 1.637 0 0 0 121.592 75.748 Q 121.431 75.682 121.239 75.635 A 3.393 3.393 0 0 0 120.996 75.586 A 11.507 11.507 0 0 1 119.98 74.269 A 10.057 10.057 0 0 1 119.678 73.779 A 25.093 25.093 0 0 0 118.87 72.481 A 29.413 29.413 0 0 0 118.457 71.875 A 16.161 16.161 0 0 0 117.517 71.004 A 13.783 13.783 0 0 0 117.09 70.654 A 5.938 5.938 0 0 1 115.918 69.434 Q 114.453 67.285 112.891 65.234 Q 111.328 63.184 109.668 61.23 A 16.577 16.577 0 0 0 108.226 59.5 A 15.074 15.074 0 0 0 108.008 59.277 A 16.168 16.168 0 0 1 106.545 57.59 A 17.95 17.95 0 0 1 106.348 57.324 A 20.011 20.011 0 0 1 104.883 55.225 A 129.806 129.806 0 0 0 103.516 53.027 Q 102.992 52.241 102.155 51.025 A 334.607 334.607 0 0 0 101.953 50.732 A 40.109 40.109 0 0 0 100.095 48.254 A 44.341 44.341 0 0 0 99.805 47.9 A 66.722 66.722 0 0 0 97.754 45.535 A 60.792 60.792 0 0 0 97.461 45.215 Q 96.343 44.003 95.58 43.325 A 12.262 12.262 0 0 0 95.508 43.262 A 1.77 1.77 0 0 0 95.366 42.796 A 1.399 1.399 0 0 0 95.02 42.334 A 5.873 5.873 0 0 0 94.379 41.849 A 6.777 6.777 0 0 0 94.141 41.699 A 8.11 8.11 0 0 0 93.701 40.771 Q 93.457 40.332 93.457 39.844 Q 93.457 39.16 93.75 38.574 A 2.967 2.967 0 0 0 93.893 38.242 Q 93.967 38.034 93.994 37.842 A 2.028 2.028 0 0 1 94.08 37.488 Q 94.133 37.328 94.214 37.158 A 3.412 3.412 0 0 1 94.238 37.109 A 9.273 9.273 0 0 1 95.071 35.655 A 11.045 11.045 0 0 1 95.557 35.01 Q 96.387 33.984 96.875 32.813 A 1.122 1.122 0 0 0 97.07 32.178 A 1.122 1.122 0 0 1 97.266 31.543 Q 97.461 30.762 98.096 30.225 A 4.574 4.574 0 0 0 99.071 29.089 A 4.352 4.352 0 0 0 99.121 29.004 A 25.931 25.931 0 0 0 100.049 27.393 Q 100.488 26.563 100.977 25.586 A 78.726 78.726 0 0 1 104.053 20.85 A 1369.758 1369.758 0 0 1 107.324 16.211 A 256.177 256.177 0 0 1 109.509 12.905 A 231.726 231.726 0 0 1 109.815 12.451 A 758.92 758.92 0 0 1 112.305 8.789 Q 112.943 7.969 113.666 6.893 A 47.771 47.771 0 0 0 113.77 6.738 Q 114.551 5.566 115.479 4.395 A 25.38 25.38 0 0 1 117.018 2.619 A 22.57 22.57 0 0 1 117.383 2.246 A 11.892 11.892 0 0 1 118.359 1.367 A 8.886 8.886 0 0 1 119.336 0.684 Q 120.801 0.586 121.289 1.318 A 1.578 1.578 0 0 0 122.433 2.029 A 2.3 2.3 0 0 0 122.754 2.051 Q 123.748 2.28 124.203 2.629 A 1.215 1.215 0 0 1 124.414 2.832 A 11.43 11.43 0 0 0 125.041 3.549 A 13.271 13.271 0 0 0 125.293 3.809 A 6.249 6.249 0 0 1 126.169 3.866 Q 126.946 3.976 127.49 4.297 A 4.904 4.904 0 0 1 128.258 4.862 Q 128.603 5.169 128.939 5.564 A 8.726 8.726 0 0 1 129.102 5.762 A 6.286 6.286 0 0 1 128.56 7.123 A 5.541 5.541 0 0 1 128.223 7.666 Q 127.637 8.496 127.148 9.375 A 2.771 2.771 0 0 0 126.531 9.789 A 2.212 2.212 0 0 0 126.025 10.449 A 2.509 2.509 0 0 1 125 11.523 A 44.217 44.217 0 0 1 122.949 14.697 A 236.081 236.081 0 0 1 120.801 17.676 A 13.295 13.295 0 0 1 120.049 18.698 A 11.037 11.037 0 0 1 119.58 19.238 Q 118.945 19.922 118.457 20.703 A 3.931 3.931 0 0 0 118.12 21.327 A 4.278 4.278 0 0 0 118.115 21.338 A 3.946 3.946 0 0 1 117.786 21.954 A 3.675 3.675 0 0 1 117.773 21.973 A 30.625 30.625 0 0 1 115.234 25.439 A 26.356 26.356 0 0 0 113.066 28.402 A 29.633 29.633 0 0 0 112.695 29.004 A 7.856 7.856 0 0 0 112.061 30.42 A 7.856 7.856 0 0 1 111.426 31.836 Q 111.127 32.285 110.627 32.962 A 65.43 65.43 0 0 1 110.303 33.398 A 25.754 25.754 0 0 0 109.102 35.151 A 28.813 28.813 0 0 0 108.887 35.498 A 41.413 41.413 0 0 0 108.09 36.864 A 34.181 34.181 0 0 0 107.666 37.646 A 6.792 6.792 0 0 0 107.395 38.225 Q 107.129 38.875 107.129 39.355 Q 107.227 39.844 108.35 41.26 A 69.174 69.174 0 0 0 109.546 42.725 A 89.421 89.421 0 0 0 110.889 44.287 A 446.703 446.703 0 0 0 112.268 45.85 A 372.928 372.928 0 0 0 113.574 47.314 Q 114.59 48.447 115.043 48.861 A 2.689 2.689 0 0 0 115.234 49.023 A 2.105 2.105 0 0 0 115.366 49.283 Q 115.692 49.847 116.65 51.074 A 103.902 103.902 0 0 0 117.957 52.71 A 140.514 140.514 0 0 0 119.434 54.492 A 603.386 603.386 0 0 1 121.695 57.193 A 527.425 527.425 0 0 1 122.412 58.057 Q 123.716 59.63 124.316 60.417 A 20.551 20.551 0 0 1 124.414 60.547 A 692.195 692.195 0 0 1 126.514 63.232 A 27.952 27.952 0 0 1 128.418 66.016 Z M 9.18 75.488 L 7.422 75.684 A 13.796 13.796 0 0 1 6.755 75.997 Q 5.784 76.419 5.259 76.419 A 1.172 1.172 0 0 1 5.176 76.416 Q 4.492 76.367 3.809 76.465 Q 3.463 76.551 3.232 76.714 A 1.202 1.202 0 0 0 3.174 76.758 A 0.895 0.895 0 0 1 2.892 76.913 A 0.817 0.817 0 0 1 2.637 76.953 A 1.16 1.16 0 0 1 1.719 76.534 A 1.659 1.659 0 0 1 1.563 76.318 Q 1.172 75.684 0.391 75.781 A 1.292 1.292 0 0 1 0.046 75.142 A 1.938 1.938 0 0 1 0 74.707 Q 0 74.333 0.029 74.045 A 3.962 3.962 0 0 1 0.049 73.877 A 10.937 10.937 0 0 1 0.092 73.6 Q 0.113 73.476 0.139 73.338 A 22.323 22.323 0 0 1 0.195 73.047 A 21.316 21.316 0 0 0 0.684 68.506 A 52.396 52.396 0 0 1 0.879 63.965 A 76.899 76.899 0 0 0 1.025 61.23 A 76.605 76.605 0 0 0 1.074 58.496 A 267.103 267.103 0 0 0 0.586 42.334 A 268.728 268.728 0 0 1 0.098 26.074 A 332.952 332.952 0 0 1 0.293 14.697 Q 0.488 8.984 0.586 3.223 Q 1.447 2.745 2.682 2.828 A 5.786 5.786 0 0 1 2.734 2.832 Q 3.887 2.921 4.637 2.124 A 2.808 2.808 0 0 0 4.785 1.953 A 3.312 3.312 0 0 1 5.436 1.888 A 3.269 3.269 0 0 1 5.762 1.904 A 9.808 9.808 0 0 0 6.738 1.953 A 3.409 3.409 0 0 0 8.443 1.489 A 4.318 4.318 0 0 0 8.789 1.27 A 11.244 11.244 0 0 1 10.756 0.175 A 12.5 12.5 0 0 1 10.938 0.098 A 5.047 5.047 0 0 0 11.158 0.166 Q 11.527 0.27 11.722 0.251 A 0.471 0.471 0 0 0 11.768 0.244 A 2.465 2.465 0 0 1 12.058 0.205 A 3.152 3.152 0 0 1 12.305 0.195 A 0.524 0.524 0 0 1 12.466 0.228 Q 12.728 0.317 13.231 0.646 A 13.363 13.363 0 0 1 13.574 0.879 A 69.888 69.888 0 0 1 14.6 1.611 A 95.141 95.141 0 0 1 15.723 2.441 A 400.965 400.965 0 0 1 16.858 3.296 A 331.07 331.07 0 0 1 17.92 4.102 A 120.967 120.967 0 0 0 18.279 4.374 Q 18.973 4.899 19.22 5.066 A 3.443 3.443 0 0 0 19.238 5.078 A 28.727 28.727 0 0 1 23.569 9.114 A 27.304 27.304 0 0 1 23.584 9.131 A 246.171 246.171 0 0 1 27.344 13.574 A 88.388 88.388 0 0 0 30.145 16.971 A 99.06 99.06 0 0 0 31.152 18.115 A 109.658 109.658 0 0 0 33.926 21.109 A 93.139 93.139 0 0 0 35.156 22.363 A 11.666 11.666 0 0 0 36.119 23.345 A 10.038 10.038 0 0 0 36.572 23.73 A 10.678 10.678 0 0 1 37.622 24.696 A 12.477 12.477 0 0 1 37.988 25.098 A 7.247 7.247 0 0 1 38.525 25.928 A 29.366 29.366 0 0 0 38.782 26.379 A 35.4 35.4 0 0 0 39.063 26.855 A 5.921 5.921 0 0 0 40.43 28.027 Q 41.211 28.516 41.895 29.199 A 4.141 4.141 0 0 1 42.169 29.443 Q 42.617 29.873 43.327 30.723 A 36.46 36.46 0 0 1 43.359 30.762 A 9.751 9.751 0 0 1 43.74 31.246 Q 44.282 31.988 44.331 32.433 A 0.785 0.785 0 0 1 44.336 32.52 Q 44.336 32.91 44.141 33.203 A 5.424 5.424 0 0 0 43.945 33.521 Q 43.849 33.689 43.753 33.881 A 8.657 8.657 0 0 0 43.75 33.887 A 1.452 1.452 0 0 0 43.701 34.086 Q 43.663 34.294 43.655 34.589 A 6.237 6.237 0 0 0 43.652 34.766 Q 43.652 35.352 43.555 35.547 A 26.669 26.669 0 0 0 43.219 35.819 Q 42.597 36.334 42.491 36.504 A 0.24 0.24 0 0 0 42.481 36.523 Q 42.389 36.707 42.212 36.89 A 2.16 2.16 0 0 1 42.188 36.914 A 2.299 2.299 0 0 1 41.455 37.549 Q 41.016 37.793 40.82 38.281 Q 40.625 38.574 40.674 38.867 A 0.736 0.736 0 0 1 40.684 38.988 Q 40.684 39.185 40.587 39.42 A 1.945 1.945 0 0 1 40.527 39.551 A 5.541 5.541 0 0 1 39.818 40.697 A 7.644 7.644 0 0 1 38.965 41.602 A 11.575 11.575 0 0 0 37.109 43.75 L 34.961 47.266 A 29.921 29.921 0 0 1 32.52 50.684 Q 31.934 51.465 31.299 52.197 Q 30.664 52.93 30.078 53.711 A 10.509 10.509 0 0 0 29.199 54.932 A 206.113 206.113 0 0 1 28.784 55.603 A 282.975 282.975 0 0 1 28.32 56.348 A 119.618 119.618 0 0 0 26.392 58.868 A 109.712 109.712 0 0 0 26.27 59.033 Q 25.293 60.352 24.219 61.719 A 46.562 46.562 0 0 1 21.68 64.99 A 31.977 31.977 0 0 0 19.511 67.847 A 29.025 29.025 0 0 0 19.238 68.262 A 32.321 32.321 0 0 1 17.59 70.71 A 28.11 28.11 0 0 1 16.992 71.484 A 34.37 34.37 0 0 1 14.453 74.316 Q 14.063 74.609 13.477 75.195 Q 13.085 75.587 12.693 75.717 A 1.228 1.228 0 0 1 12.305 75.781 A 0.844 0.844 0 0 1 11.973 75.718 A 0.796 0.796 0 0 1 11.67 75.488 A 0.779 0.779 0 0 0 11.26 75.234 Q 11.133 75.2 10.981 75.196 A 1.574 1.574 0 0 0 10.938 75.195 A 0.502 0.502 0 0 0 10.887 75.199 Q 10.748 75.214 10.352 75.293 A 15.942 15.942 0 0 1 9.958 75.366 Q 9.607 75.427 9.18 75.488 Z M 29.688 33.594 A 0.764 0.764 0 0 0 29.618 33.298 Q 29.452 32.907 28.886 32.348 A 8.517 8.517 0 0 0 28.76 32.227 Q 27.832 31.348 27.344 30.957 A 9.573 9.573 0 0 0 26.498 30.313 A 12.45 12.45 0 0 0 25.732 29.834 A 6.632 6.632 0 0 1 24.89 29.26 A 5.083 5.083 0 0 1 24.219 28.613 Q 23.731 28.027 23.291 27.393 A 17.188 17.188 0 0 0 22.363 26.172 A 387.653 387.653 0 0 0 18.799 22.266 A 24.439 24.439 0 0 1 15.625 17.969 A 10.891 10.891 0 0 1 13.965 16.602 A 6.201 6.201 0 0 0 12.275 15.41 A 7.077 7.077 0 0 0 12.109 15.332 A 3.043 3.043 0 0 0 11.953 16.301 A 3.284 3.284 0 0 0 11.963 16.553 Q 12.012 17.188 12.012 17.773 A 48.527 48.527 0 0 1 11.816 22.168 A 47.437 47.437 0 0 0 11.621 26.465 Q 11.621 31.738 11.865 36.865 Q 12.109 41.992 12.109 47.168 A 156.293 156.293 0 0 0 12.158 51.074 Q 12.207 53.027 12.5 54.98 Q 12.305 55.566 12.305 56.055 A 3.206 3.206 0 0 0 12.324 56.388 Q 12.366 56.787 12.5 57.324 Q 13.281 56.836 13.818 56.104 A 144.19 144.19 0 0 0 14.597 55.032 A 128.094 128.094 0 0 0 14.844 54.688 Q 16.504 52.539 18.115 50.342 Q 19.727 48.145 21.387 45.898 Q 22.461 44.434 23.584 43.018 A 54.262 54.262 0 0 0 25.781 40.039 A 9.79 9.79 0 0 0 25.949 39.807 Q 26.203 39.447 26.611 38.823 A 77.218 77.218 0 0 0 26.709 38.672 Q 27.344 37.695 27.979 36.67 Q 28.613 35.645 29.15 34.766 A 11.125 11.125 0 0 0 29.333 34.457 Q 29.606 33.976 29.669 33.724 A 0.55 0.55 0 0 0 29.688 33.594 Z M 67.578 18.945 L 66.504 18.75 A 9.221 9.221 0 0 0 65.629 17.523 A 8.037 8.037 0 0 0 65.186 17.041 L 63.672 15.527 A 23.657 23.657 0 0 1 63.762 17.021 A 20.373 20.373 0 0 1 63.77 17.578 L 63.77 19.629 A 124.285 124.285 0 0 1 63.623 25.732 A 122.253 122.253 0 0 0 63.477 31.738 A 56.247 56.247 0 0 0 63.635 36.027 A 48.705 48.705 0 0 0 63.77 37.5 Q 65.82 37.5 67.481 36.328 A 13.447 13.447 0 0 0 68.713 35.336 A 12.441 12.441 0 0 0 68.75 35.303 A 13.378 13.378 0 0 1 69.977 34.308 A 14.611 14.611 0 0 1 70.02 34.277 A 56.269 56.269 0 0 0 70.64 33.884 Q 71.185 33.533 71.826 33.105 L 73.877 31.738 A 30.053 30.053 0 0 0 75.83 30.322 A 13.621 13.621 0 0 0 76.57 29.696 Q 76.902 29.394 77.171 29.101 A 7.567 7.567 0 0 0 77.344 28.906 A 40.3 40.3 0 0 0 72.51 23.779 A 69.107 69.107 0 0 1 67.578 18.945 Z M 115.039 44.922 L 114.356 44.043 A 100.375 100.375 0 0 1 112.457 41.292 A 85.259 85.259 0 0 1 111.67 40.088 A 14.038 14.038 0 0 1 109.979 36.275 A 15.91 15.91 0 0 1 109.863 35.84 A 153.037 153.037 0 0 1 110.739 35.199 Q 111.589 34.582 112.218 34.147 A 37.418 37.418 0 0 1 112.744 33.789 A 20.179 20.179 0 0 1 114.651 32.668 A 22.182 22.182 0 0 1 114.941 32.52 A 145.719 145.719 0 0 1 117.236 31.396 A 10.832 10.832 0 0 0 119.336 30.078 Q 120.097 30.078 120.395 30.171 A 0.814 0.814 0 0 1 120.41 30.176 A 2.443 2.443 0 0 1 120.544 30.225 Q 120.671 30.275 120.745 30.326 A 0.389 0.389 0 0 1 120.801 30.371 A 0.822 0.822 0 0 1 120.86 30.438 Q 120.915 30.506 120.982 30.611 A 4.024 4.024 0 0 1 121.045 30.713 A 0.855 0.855 0 0 0 121.162 30.862 Q 121.336 31.044 121.68 31.25 A 17.797 17.797 0 0 0 122.388 32.617 A 13.242 13.242 0 0 0 123.145 33.789 Q 123.438 34.18 123.828 34.473 A 1.754 1.754 0 0 1 124.376 35.164 A 2.118 2.118 0 0 1 124.414 35.254 A 0.763 0.763 0 0 1 124.518 35.389 Q 124.614 35.543 124.71 35.803 A 5.377 5.377 0 0 1 124.805 36.084 A 7.075 7.075 0 0 0 124.915 36.414 Q 125.025 36.718 125.135 36.913 A 1.571 1.571 0 0 0 125.195 37.012 A 3.742 3.742 0 0 0 125.482 37.598 Q 125.643 37.871 125.864 38.164 A 9.257 9.257 0 0 0 126.367 38.77 A 5.23 5.23 0 0 1 126.782 39.289 Q 127.199 39.891 127.241 40.41 A 1.432 1.432 0 0 1 127.246 40.527 A 2.868 2.868 0 0 1 127.197 41.04 Q 127.155 41.275 127.074 41.529 A 4.828 4.828 0 0 1 127.051 41.602 A 10.623 10.623 0 0 0 126.882 42.155 Q 126.809 42.424 126.759 42.668 A 6.765 6.765 0 0 0 126.758 42.676 A 7.324 7.324 0 0 0 126.662 43.739 A 8.134 8.134 0 0 0 126.66 43.896 Q 126.66 44.531 126.27 45.02 A 2.297 2.297 0 0 1 125.811 45.379 A 1.787 1.787 0 0 1 125.195 45.605 A 2.304 2.304 0 0 0 124.125 46.091 A 2.848 2.848 0 0 0 124.121 46.094 A 3.404 3.404 0 0 0 124.011 46.21 Q 123.888 46.345 123.716 46.555 A 20.659 20.659 0 0 0 123.535 46.777 Q 123.145 47.266 122.754 47.852 Q 122.363 48.438 122.022 48.975 A 4.061 4.061 0 0 0 121.872 49.228 Q 121.739 49.475 121.698 49.656 A 0.677 0.677 0 0 0 121.68 49.805 A 29.834 29.834 0 0 1 121.312 49.833 Q 120.535 49.888 120.227 49.86 A 1.19 1.19 0 0 1 120.166 49.854 Q 119.824 49.805 119.434 49.902 A 6.197 6.197 0 0 0 118.641 49.229 A 5.523 5.523 0 0 0 118.408 49.072 Q 117.947 48.779 117.305 48.521 A 10.038 10.038 0 0 0 117.09 48.437 A 4.008 4.008 0 0 0 116.878 47.824 Q 116.641 47.276 116.211 46.631 A 93.132 93.132 0 0 0 115.726 45.91 Q 115.344 45.349 115.039 44.922 Z" vector-effect="non-scaling-stroke"/></g></svg>